/* XPM */
static char *_52bc70a45a14cb1b231ec228f482578[] = {
/* columns rows colors chars-per-pixel */
"16 16 108 2 ",
"   c black",
".  c #020100",
"X  c #050302",
"o  c #080604",
"O  c #090604",
"+  c #0A0704",
"@  c #100D08",
"#  c #14110A",
"$  c #17120B",
"%  c #231C11",
"&  c #241E12",
"*  c #272013",
"=  c #282315",
"-  c #342A19",
";  c #463A23",
":  c #473B24",
">  c #4B3F26",
",  c #4A4026",
"<  c #4D4026",
"1  c #524429",
"2  c #52462A",
"3  c #53482B",
"4  c #594B2D",
"5  c #5C4D2E",
"6  c #5F4F30",
"7  c #8B7446",
"8  c #897647",
"9  c #917848",
"0  c #947B4A",
"q  c #9B814E",
"w  c #9B8650",
"e  c #9C8651",
"r  c #A78B53",
"t  c #A78B54",
"y  c #A78D55",
"u  c #A58E55",
"i  c #A98C54",
"p  c #A98C55",
"a  c #A79056",
"s  c #B89C5E",
"d  c #C7A664",
"f  c #CDAD68",
"g  c #CDAE69",
"h  c #D2AF6A",
"j  c #D0B06A",
"k  c #D4B76E",
"l  c #D8BA70",
"z  c #D8BB71",
"x  c #E2BC72",
"c  c #E4BE72",
"v  c #E3C375",
"b  c #EAC879",
"n  c #F3CE7C",
"m  c #F9CD7C",
"M  c #FACE7C",
"N  c #FACF7D",
"B  c #FBCF7D",
"V  c #FAD07D",
"C  c #FBD07D",
"Z  c #FBD07E",
"A  c #FBD17E",
"S  c #FBD27E",
"D  c #FBD27F",
"F  c #FBD37F",
"G  c #FCD07E",
"H  c #FCD17E",
"J  c #FDD17E",
"K  c #FDD27F",
"L  c #FED27F",
"P  c #FED37F",
"I  c #FAD681",
"U  c #FAD781",
"Y  c #FCD580",
"T  c #FDD580",
"R  c #FCD581",
"E  c #FFD580",
"W  c #FFD581",
"Q  c #FFD681",
"!  c #FFD781",
"~  c #FFD782",
"^  c #F8D983",
"/  c #FBD882",
"(  c #FDD983",
")  c #FFD882",
"_  c #FFD983",
"`  c #FFDC85",
"'  c #FFDD85",
"]  c #FEDF86",
"[  c #FFE087",
"{  c #FFE187",
"}  c #FEE188",
"|  c #FFE188",
" . c #FDE389",
".. c #FEE288",
"X. c #FFE288",
"o. c #FFE289",
"O. c #FEE389",
"+. c #FFE389",
"@. c #FFE489",
"#. c #FFE58A",
"$. c #FFE68B",
"%. c #FFE78B",
"&. c #FFE88C",
"*. c #FFEC8E",
"=. c #FFEF90",
"-. c #FFF090",
";. c #FFF191",
":. c None",
/* pixels */
":.:.:.:.:.:.:.:.:.:.:.:.:.:.:.:.",
":.:.:.:.:.: 8 p p 7 : :.:.:.:.:.",
":.:.:.& p E ] +.+.+.T r & :.:.:.",
":.:.% g &.I ] E M Y +.=.g % :.:.",
":.:.a %.E h , j ] b 2 9 -.y :.:.",
":., / J E Z $ 2 *.; @ x E I , :.",
":.8 +.Z Z %.e o 4 o k [ m +.8 :.",
":.y +.Z J J / = . s [ M J %.y :.",
":.t +.Y M +.s . o z E T Z +.t :.",
":.8 +.M ] z . 6 * 3 %.J M %.8 :.",
":., I E c $ - %.w . d ] Z / , :.",
":.:.y -.0 > v ] n 5 q E &.a :.:.",
":.:.% g *.%.Z M Z ] ( &.g % :.:.",
":.:.:.& y E +.+.[ +.E p & :.:.:.",
":.:.:.:.:.: 7 p p 8 : :.:.:.:.:.",
":.:.:.:.:.:.:.:.:.:.:.:.:.:.:.:."
};
