/* XPM */
static char *_ff87111cc6e47b1b69d887c3dc423ac[] = {
/* columns rows colors chars-per-pixel */
"32 32 177 2 ",
"   c black",
".  c #010000",
"X  c #020201",
"o  c #030301",
"O  c #040201",
"+  c #040302",
"@  c #070603",
"#  c #070604",
"$  c #090704",
"%  c #0A0805",
"&  c #0D0B06",
"*  c #0E0B07",
"=  c #0E0C07",
"-  c #0F0D07",
";  c #100D08",
":  c #100E08",
">  c #120E08",
",  c #15100A",
"<  c #14110A",
"1  c #16120B",
"2  c #17120B",
"3  c #17130B",
"4  c #19160D",
"5  c #1B170E",
"6  c #1E1A0F",
"7  c #231D11",
"8  c #231E12",
"9  c #272013",
"0  c #2C2516",
"q  c #302717",
"w  c #322919",
"e  c #342B1A",
"r  c #352C1B",
"t  c #362D1B",
"y  c #362E1C",
"u  c #403520",
"i  c #413621",
"p  c #453A22",
"a  c #453B23",
"s  c #4C4026",
"d  c #564A2C",
"f  c #58492C",
"g  c #625332",
"h  c #635332",
"j  c #655634",
"k  c #685734",
"l  c #6A5734",
"z  c #695835",
"x  c #6A5936",
"c  c #6B6039",
"v  c #70603A",
"b  c #76643C",
"n  c #76653D",
"m  c #77653D",
"M  c #7D6B40",
"N  c #7F6E42",
"B  c #806B40",
"V  c #826D41",
"C  c #847144",
"Z  c #877345",
"A  c #887345",
"S  c #8E7848",
"D  c #97804D",
"F  c #A68E56",
"G  c #A98D55",
"H  c #AD9157",
"J  c #AE9258",
"K  c #AF9358",
"L  c #AE9459",
"P  c #B29559",
"I  c #B3955A",
"U  c #B3965A",
"Y  c #B4975B",
"T  c #B6985B",
"R  c #B49A5D",
"E  c #B59A5D",
"W  c #BDA161",
"Q  c #BFA061",
"!  c #BEA362",
"~  c #C3A262",
"^  c #C3A362",
"/  c #C7A765",
"(  c #C8A764",
")  c #C8A966",
"_  c #CAA966",
"`  c #CCAB67",
"'  c #D0B26B",
"]  c #D5B16B",
"[  c #D2B36C",
"{  c #DEB96F",
"}  c #DABB71",
"|  c #DBBC71",
" . c #DDBC71",
".. c #DFBF73",
"X. c #E1C073",
"o. c #E3C074",
"O. c #E4C375",
"+. c #E6C376",
"@. c #E9C677",
"#. c #EAC677",
"$. c #EEC677",
"%. c #E8C778",
"&. c #EBCA7A",
"*. c #ECC979",
"=. c #EDCC7B",
"-. c #EFCD7B",
";. c #F7CC7B",
":. c #F0CE7C",
">. c #F2CF7D",
",. c #F8CD7C",
"<. c #F9CE7C",
"1. c #FACF7D",
"2. c #FAD07D",
"3. c #FBD07D",
"4. c #FAD07E",
"5. c #FBD07E",
"6. c #FBD17E",
"7. c #F9D27F",
"8. c #FBD37F",
"9. c #FCD07D",
"0. c #FCD07E",
"q. c #FCD17E",
"w. c #FDD17E",
"e. c #FCD27E",
"r. c #FDD27E",
"t. c #FCD27F",
"y. c #FDD27F",
"u. c #FCD37F",
"i. c #FDD37F",
"p. c #FED27F",
"a. c #FED37F",
"s. c #FFD37F",
"d. c #FBD380",
"f. c #FED380",
"g. c #FAD782",
"h. c #FDD480",
"j. c #FED480",
"k. c #FFD480",
"l. c #FFD580",
"z. c #FDD781",
"x. c #FFD681",
"c. c #FFD781",
"v. c #FFD782",
"b. c #FDD983",
"n. c #FFD882",
"m. c #FED983",
"M. c #FFD983",
"N. c #FFDA83",
"B. c #FDDB84",
"V. c #FEDA84",
"C. c #FEDB84",
"Z. c #FFDB84",
"A. c #FFDC84",
"S. c #FEDC85",
"D. c #FEDD85",
"F. c #FFDD85",
"G. c #FEDE86",
"H. c #FFDE86",
"J. c #FFDF87",
"K. c #FEE087",
"L. c #FFE087",
"P. c #FFE187",
"I. c #FEE188",
"U. c #FFE188",
"Y. c #FDE288",
"T. c #FFE288",
"R. c #FFE389",
"E. c #FFE489",
"W. c #FFE48A",
"Q. c #FEE58A",
"!. c #FFE58A",
"~. c #FFE68A",
"^. c #FEE68B",
"/. c #FFE68B",
"(. c #FFE78B",
"). c #FFE88C",
"_. c None",
/* pixels */
"_._._._._._._._._._._._._._._._._._._._._._._._._._._._._._._._.",
"_._._._._._._._._._._._._._.        _._._._._._._._._._._._._._.",
"_._._._._._._._._._.    & y f j k f y *     _._._._._._._._._._.",
"_._._._._._._._.    i F $.L.(.(.(.(.S.$.G i     _._._._._._._._.",
"_._._._._._._.  0 ~ L.L.v.i.4.4.1.4.i.v.L.U.~ 0   _._._._._._._.",
"_._._._._._.  l S.L.i.4.i.i.i.i.i.i.i.i.1.i.L.S.x   _._._._._._.",
"_._._._._.  B (.d.4.s.s.i.1.4.v.i.s.v.i.i.4.1.4.(.B   _._._._._.",
"_._._._.  x (.4.8.s.s.S.L.S.n.s.s.s.i.i.C.S.U.S.1.(.x   _._._._.",
"_._._.  w C.v.i.k.k.v.~ U U +.n.i.k.0.C.( Y H _ v.i.S.w   _._._.",
"_._._.  ! S.1.k.i.1.L.V     j L.i.1.U.R     @ ~ A.<.L.!   _._._.",
"_._.  a U.i.k.i.s.s.v.-.6   &  .v.n.} 3     L (.4.s.4.U.a   _._.",
"_._.  F U.4.k.k.v.s.4.U.A     m (.>.e     A L.i.s.s.4.U.F   _._.",
"_._.; @.v.i.i.k.s.s.i.v.*.5   3 -.h     h U.4.i.i.i.i.v.@.: _._.",
"_._.y S.i.i.k.k.v.s.i.i.U.C     e $   i d.i.v.i.i.i.i.i.S.y _._.",
"_.  d (.0.i.v.k.i.i.i.i.v.@.3   +   7 %.n.i.k.i.v.i.i.0.(.d   _.",
"_.  l (.1.i.i.i.s.v.i.i.<.(.c     * ' S.0.k.i.k.k.i.i.1.(.x   _.",
"_.  k (.1.i.k.i.i.i.i.i.S.[ :     3 >.v.i.i.i.k.k.k.i.0.(.l   _.",
"_.  d (.i.i.k.i.i.i.i.n.-.9     +   M U.i.i.i.k.k.k.i.1.U.d   _.",
"_._.y S.i.i.v.i.k.i.v.g.a     s 7   3 O.n.i.i.i.k.k.i.i.S.y _._.",
"_._.; @.v.i.i.i.i.i.L.x     q L.M     m L.0.v.i.k.i.i.v.*.; _._.",
"_._.  F U.4.s.i.1.U.S     2  .L.+.:   ; ..C.i.i.k.k.4.U.F   _._.",
"_._.  a U.4.v.0.U.R     + ! L.;.(.m     v U.1.v.i.v.i.U.a   _._.",
"_._._.  ! L.1.C.( %     S (.0.i.n.X.&   # ] C.4.k.1.S.!   _._._.",
"_._._.  w n.i.v.` H R ~ v.i.i.i.i.n._ U L { n.k.i.v.C.w   _._._.",
"_._._._.  x (.1.S.U.L.S.4.v.v.i.i.i.S.L.U.n.s.s.1.(.x   _._._._.",
"_._._._._.  B (.4.;.4.i.i.i.i.i.i.i.i.4.4.s.4.d.(.M   _._._._._.",
"_._._._._._.  l n.L.4.4.i.i.i.i.i.i.i.i.4.4.S.S.l   _._._._._._.",
"_._._._._._._.  0 ~ (.U.v.i.0.1.1.i.i.n.L.(.~ 0   _._._._._._._.",
"_._._._._._._._.    i G $.S.(.(.(.U.S.$.G i     _._._._._._._._.",
"_._._._._._._._._._.    & e f x k f y ;     _._._._._._._._._._.",
"_._._._._._._._._._._._._._.        _._._._._._._._._._._._._._.",
"_._._._._._._._._._._._._._._._._._._._._._._._._._._._._._._._."
};
