/* XPM */
static char *ccad580df8204f34b4a49524bc81f398[] = {
/* columns rows colors chars-per-pixel */
"128 128 77 1 ",
"  c #000000",
". c #080704",
"X c #0B0905",
"o c #110E08",
"O c #16130B",
"+ c #19160D",
"@ c #1D190F",
"# c #1F1B10",
"$ c #221D11",
"% c #272013",
"& c #2A2416",
"* c #2F2918",
"= c #322C1A",
"- c #3C331F",
"; c #3E3620",
": c #423721",
"> c #443A23",
", c #483D25",
"< c #4C4027",
"1 c #4E4328",
"2 c #52462A",
"3 c #55492C",
"4 c #594D2E",
"5 c #5E5030",
"6 c #625433",
"7 c #655835",
"8 c #695A36",
"9 c #6E5E38",
"0 c #715F39",
"q c #72613A",
"w c #7B693F",
"e c #7C6B40",
"r c #836F43",
"t c #857244",
"y c #8A7647",
"u c #8D7748",
"i c #8E7949",
"p c #927D4B",
"a c #97814E",
"s c #9A844F",
"d c #9C8650",
"f c #9E8A53",
"g c #A28A53",
"h c #A88F56",
"j c #A99157",
"k c #AD9459",
"l c #B09559",
"z c #B49A5D",
"x c #BD9D5E",
"c c #BC9F60",
"v c #BDA161",
"b c #C2A764",
"n c #C6AB67",
"m c #CAAB67",
"M c #CBAE68",
"N c #CFB26B",
"B c #D4B56D",
"V c #D8B66E",
"C c #D7B96F",
"Z c #D8B96F",
"A c #DDBD72",
"S c #E1BF73",
"D c #DFC074",
"F c #E4C375",
"G c #E8C577",
"H c #EDC678",
"J c #EDCB7A",
"K c #F3CF7D",
"L c #FACF7D",
"P c #F6D17E",
"I c #FDD27F",
"U c #FFD480",
"Y c #FFDC84",
"T c #FFE087",
"R c #FFE288",
"E c #FFEB8E",
"W c None",
/* pixels */
"WWWWWWWWWWWWWWWWWWWWWWWWWWWWWWWWWWWWWWWWWWWWWWWWWWWWWWWWWWWWWWWWWWWWWWWWWWWWWWWWWWWWWWWWWWWWWWWWWWWWWWWWWWWWWWWWWWWWWWWWWWWWWWWW",
"WWWWWWWWWWWWWWWWWWWWWWWWWWWWWWWWWWWWWWWWWWWWWWWWWWWWWWWWWWWWWWWWWWWWWWWWWWWWWWWWWWWWWWWWWWWWWWWWWWWWWWWWWWWWWWWWWWWWWWWWWWWWWWWW",
"WWWWWWWWWWWWWWWWWWWWWWWWWWWWWWWWWWWWWWWWWWWWWWWWWWWWWWWWWWWWWWWWWWWWWWWWWWWWWWWWWWWWWWWWWWWWWWWWWWWWWWWWWWWWWWWWWWWWWWWWWWWWWWWW",
"WWWWWWWWWWWWWWWWWWWWWWWWWWWWWWWWWWWWWWWWWWWWWWWWWWWWWWWWWWWWWWWWWWWWWWWWWWWWWWWWWWWWWWWWWWWWWWWWWWWWWWWWWWWWWWWWWWWWWWWWWWWWWWWW",
"WWWWWWWWWWWWWWWWWWWWWWWWWWWWWWWWWWWWWWWWWWWWWWWWWWWWWWWWWWWWWWWWWWWWWWWWWWWWWWWWWWWWWWWWWWWWWWWWWWWWWWWWWWWWWWWWWWWWWWWWWWWWWWWW",
"WWWWWWWWWWWWWWWWWWWWWWWWWWWWWWWWWWWWWWWWWWWWWWWWWWWWWWWWWWW          WWWWWWWWWWWWWWWWWWWWWWWWWWWWWWWWWWWWWWWWWWWWWWWWWWWWWWWWWWW",
"WWWWWWWWWWWWWWWWWWWWWWWWWWWWWWWWWWWWWWWWWWWWWWWWWWWW                        WWWWWWWWWWWWWWWWWWWWWWWWWWWWWWWWWWWWWWWWWWWWWWWWWWWW",
"WWWWWWWWWWWWWWWWWWWWWWWWWWWWWWWWWWWWWWWWWWWWWWWW                                WWWWWWWWWWWWWWWWWWWWWWWWWWWWWWWWWWWWWWWWWWWWWWWW",
"WWWWWWWWWWWWWWWWWWWWWWWWWWWWWWWWWWWWWWWWWWWWW             .                        WWWWWWWWWWWWWWWWWWWWWWWWWWWWWWWWWWWWWWWWWWWWW",
"WWWWWWWWWWWWWWWWWWWWWWWWWWWWWWWWWWWWWWWWWW                                            WWWWWWWWWWWWWWWWWWWWWWWWWWWWWWWWWWWWWWWWWW",
"WWWWWWWWWWWWWWWWWWWWWWWWWWWWWWWWWWWWWWWW              X&,7tdlxxxcxxldy7,&X              WWWWWWWWWWWWWWWWWWWWWWWWWWWWWWWWWWWWWWWW",
"WWWWWWWWWWWWWWWWWWWWWWWWWWWWWWWWWWWWWW            $3yvFUTRRTTTTTTTTTTRRTLFvu3$            WWWWWWWWWWWWWWWWWWWWWWWWWWWWWWWWWWWWWW",
"WWWWWWWWWWWWWWWWWWWWWWWWWWWWWWWWWWWW          .-tmPTRYUUILLILIIIIIILILLIUUTRTPmt-           WWWWWWWWWWWWWWWWWWWWWWWWWWWWWWWWWWWW",
"WWWWWWWWWWWWWWWWWWWWWWWWWWWWWWWWWW          *tCYRYUIILIIIIIIIIUIIIIIIUUIUILIIUYTYBy*          WWWWWWWWWWWWWWWWWWWWWWWWWWWWWWWWWW",
"WWWWWWWWWWWWWWWWWWWWWWWWWWWWWWWW          2vURYILIIIUIUUUUUUUUUUUUIUUUUUUUIIUILLIYRUb2.         WWWWWWWWWWWWWWWWWWWWWWWWWWWWWWWW",
"WWWWWWWWWWWWWWWWWWWWWWWWWWWWWWW        X6BTYILIIIIUUUUUUUUUUUUUUUUUUUUUUUUUUUUIIIULIYYB6X        WWWWWWWWWWWWWWWWWWWWWWWWWWWWWWW",
"WWWWWWWWWWWWWWWWWWWWWWWWWWWWW        .5ZTYILUUIUUUUUUUUUUUUUUUUUUUUUUUUUUUUUUUUUUIUIIIYRC5         WWWWWWWWWWWWWWWWWWWWWWWWWWWWW",
"WWWWWWWWWWWWWWWWWWWWWWWWWWWW        ;MRYLIIIIUUUUUUUUUUUUUUUUUUUUUUUUUUUUUUUUUUUUUUIIUILYRm;        WWWWWWWWWWWWWWWWWWWWWWWWWWWW",
"WWWWWWWWWWWWWWWWWWWWWWWWWWW       +dUTLIUIUUUUUUUUUUUUUUUUUUUUUUUUUUUUUUUUUUUUUUUUUUUUIUILYYg+       WWWWWWWWWWWWWWWWWWWWWWWWWWW",
"WWWWWWWWWWWWWWWWWWWWWWWWWW       2GRIIIIIUUUUUUUUUUUUUUUUUUUUUUUUUUUUUUUUUUUUUUUUUUUUUUIIUIIRG3       WWWWWWWWWWWWWWWWWWWWWWWWWW",
"WWWWWWWWWWWWWWWWWWWWWWWWW      XdYYLIUIUUUUUUUUUUUUUUUUUUUUUUUUUUUUUUUUUUUUUUUUUUUUUUUUUUIUUPUTdX      WWWWWWWWWWWWWWWWWWWWWWWWW",
"WWWWWWWWWWWWWWWWWWWWWWW       &BRLUUIUUUUUUUUUUUUUUUUUUUUUUUUUUUUUUUUUUUUUUUUUUUUUUUUUUUUUUIUULRN&       WWWWWWWWWWWWWWWWWWWWWWW",
"WWWWWWWWWWWWWWWWWWWWWW       1KYLIUIUUUUUUUUUUUUUUUUUUUUUUUUUUUUUUUUUUUUUUUUUUUUUUUUUUUUUUUUUUILYK2       WWWWWWWWWWWWWWWWWWWWWW",
"WWWWWWWWWWWWWWWWWWWWW       qTULUUUUUUUUUUUUUUUUUUUUUUUUUUUUUUUUUUUUUUUUUUUUUUUUUUUUUUUUUUUUUUIULUY0       WWWWWWWWWWWWWWWWWWWWW",
"WWWWWWWWWWWWWWWWWWWWW      yRIIUIUUUUUUUUUUUUUUUUUUUUUUUUUUUUUUUUUUUUUUUUUUUUUUUUUUUUUUUUUUUUUUIUUIRy      WWWWWWWWWWWWWWWWWWWWW",
"WWWWWWWWWWWWWWWWWWWW      yRLIUIUUUUUUUUUUUUUUUUUUUUUUUUUUUUUUUUUUUUUUUUUUUUUUUUUUUUUUUUUUUUUUUUUUULRy      WWWWWWWWWWWWWWWWWWWW",
"WWWWWWWWWWWWWWWWWWW      yRLIUUUUUUUUUUUUUUUUUUUUUIUUUUUUUUUUUUUUUUUUUUUUUUUUUUUUUUUUUUUUUUUUUUUUIUIIRy      WWWWWWWWWWWWWWWWWWW",
"WWWWWWWWWWWWWWWWWW      yRLUUIUUUUUUUUUUUUUUUUUUUUUUUUUUUUUUUUUUUUUUUUUUUIUUUUUUUUUUUUUUUUUUUUUUUUUUILRy      WWWWWWWWWWWWWWWWWW",
"WWWWWWWWWWWWWWWWW      qRIIUIUUUUUUUUUUUUUUUUUUUUUUUUUUUUUUUUUUUUUUUUUUUUUUUUUUUUUUUUUUUUUUUUUUUUUUIUUIRq      WWWWWWWWWWWWWWWWW",
"WWWWWWWWWWWWWWWW      2TIUUIUUUUUUUUUUUUUUUUUUUUUUUUUUUUUUUUUUUUUUUUUUUUUUUUUUUUUUUUUUUUUUUUUUUUUUUUIUIIY2      WWWWWWWWWWWWWWWW",
"WWWWWWWWWWWWWWWW     &KUIIUUUUUUUUUUUUUUUUUUUUUUUUUUUUUUUUUUUUUUUUUUUUUUUUUUUUUUUUUUUUUUUUUUUUUUUUUUUIUIUJ&     WWWWWWWWWWWWWWWW",
"WWWWWWWWWWWWWWW     XNTIUIUUUUUUUUUUUUUUUUUUUUUUUUUUUUUUUUUUUUUUUUUUUUUUUUUUUUUUUUUUUUUUUUUUUUUUUUUUUUIUIYNX     WWWWWWWWWWWWWWW",
"WWWWWWWWWWWWWW      dRIIIUUUUUUUUUUUUUUUUUUUIIIIUUULUPUULIUIUUUUUUUUUUUUUUUUUUUIUILLULUUULUUIUIIUIUUUUUUUIRs      WWWWWWWWWWWWWW",
"WWWWWWWWWWWWWW     4TIIIUUUUUUUUUUUUUUUUUUUIUTYYYYYYYYYYYUUUUUUUUUUUUUUUUUUUUUIUUYYYYYYYYYYYYYYIUUUUUUUUIIIT4     WWWWWWWWWWWWWW",
"WWWWWWWWWWWWW     +FUIUUUUUUUUUUUUUUUUUUUUIUHNBBBBBBBBBBCUIUIUUUUUUUUUUUUUUUUIUIUFBBBBBBBBCBBBNPUIUUUUUUUUIYG+     WWWWWWWWWWWWW",
"WWWWWWWWWWWWW     fRIIIUUUUUUUUUUUUUUUUUUIIYAO   .    .  zYLUUUUUUUUUUUUUUUUIULYD+ .        . 8YIIUUUUUUIIIIRf     WWWWWWWWWWWWW",
"WWWWWWWWWWWW     >YIUIUUUUUUUUUUUUUUUUUUUUULTq           ,YIUIUUUUUUUUUUUUUUUUUU;            >UUIUUUUUUUUUIIIY>     WWWWWWWWWWWW",
"WWWWWWWWWWWW     MYIUUUUUUUUUUUUUUUUUUUUUUUIUDo           bYIIUUUUUUUUUUUUUUIIT6            %JUIUIUUUUUUUUUULTM     WWWWWWWWWWWW",
"WWWWWWWWWWW     5RLUIUUUUUUUUUUUUUUUUUUUUUUULR9           4RIUUUUUUUUUUUUUIULRp            oNTIUIUUUUUUUUUUIIIT5     WWWWWWWWWWW",
"WWWWWWWWWWW    XCYUIUUUUUUUUUUUUUUUUUUUUUUUIUUAX          .BYIIUUUUUUUUUUIULRv             zRIUIUUUUUUUUUUUIIIYCX    WWWWWWWWWWW",
"WWWWWWWWWW     7RLUIUUUUUUUUUUUUUUUUUUUUUUUIULR8           8RUUUUUUUUUUUIULYD+            iRIIIUUUUUUUUUUUUUIUIR8     WWWWWWWWWW",
"WWWWWWWWWW     BYIIUUUUUUUUUUUUUUUUUUUUUUUUUUIYZX          ODUIIUUUUUUUUUUUU;            8RIIIUUUUUUUUUUUUUUUUIYB     WWWWWWWWWW",
"WWWWWWWWW     3RLUIUUUUUUUUUUUUUUUUUUUUUUUUUUULR8           eRIUUUUUUUUIILR8            <UUIUUUUUUUUUUUUUUUUUIIIR2     WWWWWWWWW",
"WWWWWWWWW     vYIUUUUUUUUUUUUUUUUUUUUUUUUUUUUULYZX          +GUUIUUUUUUULRa            &JUIUUUUUUUUUUUUUUUUUUUIIYv     WWWWWWWWW",
"WWWWWWWWW    *UIIIUUUUUUUUUUUUUUUUUUUUUUUUUUUIULT7           yRLUUUUUIUIYv            oBYIUIUUUUUUUUUUUUUUUUUUIUUU*    WWWWWWWWW",
"WWWWWWWW   . yRLUUUUUUUUUUUUUUUUUUUUUUUUUUUUUUIUYB           %PUIUUUIUIYF@            zTLUIUUUUUUUUUUUUUUUUUUUUULRt     WWWWWWWW",
"WWWWWWWW     BUUIUUUUUUUUUUUUUUUUUUUUUUUUUUUUUIULT7           dRIUUUUIIU:            iRLUIUUUUUUUUUUUUUUUUUUUUUILYC.    WWWWWWWW",
"WWWWWWWW    ;YUUUUUUUUUUUUUUUUUUUUUUUUUUUUUUUUUUIYB           =UIIIIILR8            9RLIIUUUUUUUUUUUUUUUUUUUUUUUULY;    WWWWWWWW",
"WWWWWWW     yTLUUUUUUUUUUUUUUUUUUUUUUUUUUUUUUUUIUIR5           lRIIILRa            ,UUUUUUUUUUUUUUUUUUUUUUUUUUUUULRy     WWWWWWW",
"WWWWWWW     mYIIUUUUUUUUUUUUUUUUUUUUUUUUUUUUUUUUIIYN           >YIIIYb.           &JUIUIUUUUUUUUUUUUUUUUUUUUUUUUIIYM     WWWWWWW",
"WWWWWWW    $PIIUUUUUUUUUUUUUUUUUUUUUUUUUUUUUUUUUIUIR6           vTLYF#           OCYLUUUUUUUUUUUUUUUUUUUUUUUUUUUUIIP%    WWWWWWW",
"WWWWWWW    4TIIUUUUUUUUUUUUIUUUUUUUUUUUUUUUUUUUUUIIUN           1TIU:            zTLUUUUUUUUUUUUUUUUUUUUUUUUUUUUUILT4    WWWWWWW",
"WWWWWW     iRLIUUUUUUUUUUUUUUUUUUUUUUUUUUUUUUUUUUUULT4           mE8            pRLUIUUUUUUUUUUUUUUUUUUUUUUUUUUUUULRi     WWWWWW",
"WWWWWW     vTIIUUUUUUUUUUUUUUUUUUUUUUUUUUUUUUUUUUUIIYM           qh            qRIIUUUUUUUUUUUUUUUUUUUUUUUUUUUUUUIITv     WWWWWW",
"WWWWWW    XFUUUUUUUUUUUUUUUUUUUUUUUUUUUUUUUUUUUUUUIUIT4          XX           ,UIIUUUUUUUUUUUUUUUUUUUUUUUUUUUUUUUUIUFo    WWWWWW",
"WWWWWW    &IUUUUUUUUUUUUUUUUUUUUUUUUUUUUUUUUUUUUUUUIIYm                      &JYIUIUUUUUUUUUUUUUUUUUUUUUUUUUUUUUUUUUL&    WWWWWW",
"WWWWWW    ,YIIUUUUUUUUUUUUUUUUUUUUUUUUUUUUUUUUUUUUUIUIT2                    OCYIUIUUUUUUUUUUUUUUUUUUUUUUUUUUUUUUUUIIY, .  WWWWWW",
"WWWWWW    8RIIUUUUUUUUUUUUUUUUUUUUUUUUUUUUUUUUUUUUUUIIYn                    zTLUIUUUUUUUUUUUUUUUUUUUUUUUUUUUUUUUUUULR8    WWWWWW",
"WWWWWW    tRLIUUUUUUUUUUUUUUUUUUUUUUUUUUUUUUUUUUUUUUIUIT2                  pRLUIUUUUUUUUUUUUUUUUUUUUUUUUUUUUUUUUUUULRt    WWWWWW",
"WWWWW     dRIIUUUUUUUUUUUUUUUUUUUUUUUUUUUUUUUUUUUUUUIILTb                 qRIIIUUUUUUUUUUUUUUUUUUUUUUUUUUUUUUUUUUUILRd     WWWWW",
"WWWWW     lTLUUUUUUUUUUUUUUUUUUUUUUUUUUUUUUUUUUUUUUUUIIIY1               <UIUUUUUUUUUUUUUUUUUUUUUUUUUUUUUUUUUUUUUUIITl     WWWWW",
"WWWWW     xTIIUUUUUUUUUUUUUUUUUUUUUUUUUUUUUUUUUUUUUUUUIITv              &JYIUIUUUUUUUUUUUUUUUUUUUUUUUUUUUUUUUUUUUUIITx     WWWWW",
"WWWWW     bYLIUUUUUUUUUUUUUUUUUUUUUUUUUUUUUUUUUUUUUUUUUUIT-            OCYIUIUUUUUUUUUUUUUUUUUUIUUUUUUUUUUUUUUUUUUILTx     WWWWW",
"WWWWW     xYIUUUUUUUUUUUUUUUUUUUIUUUUUUUUUUUUUUUUUUUUIULTk             vRLUIUUUUUUUUUUUUUUUUUUUUUUUUUUUUUUUUUUUUUUIIYx     WWWWW",
"WWWWW     xYIIUUUUUUUUUUUUUUUUUUUUUUUUUUUUUUUUUUUUUUIULTMX             MYIIUUUUUUUUUUUUUUUUUUUUUUUUUUUUUUUUUUUUUUUIITx     WWWWW",
"WWWWW     xTLUUUUUUUUUUUUUUUUUUUUUUUUUUUUUUUUUUUUUUIULYF$              1YIUIUUUUUUUUUUUUUUUUUUUUUUUUUUUUUUUUUUUUUUILYx     WWWWW",
"WWWWW     cTIIUUUUUUUUUUUUUUUUUUUUUUUUUUUUUUUUUUUUIUUUU;                vYUUUUUUUUUUUUUUUUUUUUUUUUUUUUUUUUUUUUUUUUIIYv .   WWWWW",
"WWWWW     lTIIUUUUUUUUUUUUUUUUUUUUUUUUUUUUUUUUUUUUUULT6                 ,YIUIUUUUUUUUUUUUUUUUUUUUUUUUUUUUUUUUUUUUUIIRl     WWWWW",
"WWWWW     dRLUUUUUUUUUUUUUUUUUUUUUUUUUUUUUUUUUUUUIULRt                   xTLUUUUUUUUUUUUUUUUUUUUUUUUUUUUUUUUUUUUUUIIRd     WWWWW",
"WWWWWW  . tRLIUUUUUUUUUUUUUUUUUUUUUUUUUUUUUUUUUUUULRj                    >YIUIUUUUUUUUUUUUUUUUUUUUUUUUUUUUUUUUUUUUILRr    WWWWWW",
"WWWWWW    8RLUUUUUUUUUUUUUUUUUUUUUUUUUUUUUUUUUUUUITMX                     zTLUUUUUUUUUUUUUUUUUUUUUUUUUUUUUUUUUUUUUIIR8    WWWWWW",
"WWWWWW    ,YIIUUUUUUUUUUUUUUUUUUUUUUUUUUUUUUUUIUIUF#                      ;UUUIUUUUUUUUUUUUUUUUUUUUUUUUUUUUUUUUUUUIIY,    WWWWWW",
"WWWWWW    &IUIUUUUUUUUUUUUUUUUUUUUUUUUUUUUUUUUUIUU>                        kRLUUUUUUUUUUUUUUUUUUUUUUUUUUUUUUUUUUUUUUL&    WWWWWW",
"WWWWWW    XFUIUUUUUUUUUUUUUUUUUUUUUUUUUUUUUUUUIIR5            +u           =UUUUUUUUUUUUUUUUUUUUUUUUUUUUUUUUUUUUUUUUFo    WWWWWW",
"WWWWWW     vTIUUUUUUUUUUUUUUUUUUUUUUUUUUUUUUIULRt             hE,           fTLUUUUUUUUUUUUUUUUUUUUUUUUUUUUUUUUUUUIYv     WWWWWW",
"WWWWWW     iRLIUUUUIUUUUUUUUUUUUUUUUUUUUUUUIULRj             rTYc           *UUUIUUUUUUUUUUUUUUUUUUUUUUUUUUIUUUUUILTi     WWWWWW",
"WWWWWWW    3RIIUUUUUUUUUUUUUUUUUUUUUUUUUUUUUIYMX          . 4TLIY>           dRUUUUUUUUUUUUUUUUUUUUUUUUUUUUUUUUUUILR4    WWWWWWW",
"WWWWWWW    %PUIUUUUUUUUUUUUUUUUUUUUUUUUUUIULUF$            -PUIIYz           &PUIIUUUUUUUUUUUUUUUUUUUUUUUUUUUUUUUUUP$    WWWWWWW",
"WWWWWWW     mYIIUUUUUUUUUUUUUUUUUUUUUUUUIUUUU;            +DYLUUUU;           aRLUUUUUUUUUUUUUUUUUUUUUUUUUUUUUUUIIYm     WWWWWWW",
"WWWWWWW     yRIIUUUUUUUUUUUUUUUUUUUUUUUUUULR5             vRLUIULRk           %JUIIUUUUUUUUUUUUUUUUUUUUUUUUUUUUUILTy     WWWWWWW",
"WWWWWWWW    ;YUIUUUUUUUUUUUUUUUUUUUUUUUIUIRy             dRLUUUIUUU-           iRLUUUUUUUUUUUUUUUUUUUUUUUUUUUUUUILY;    WWWWWWWW",
"WWWWWWWW    .BYIIUUUUUUUUUUUUUUUUUUUUUUUPRj             qRLUIUUUULTh           @JUIIUUUUUUUUUUUUUUUUUUUUUUUUUUUIUYZ     WWWWWWWW",
"WWWWWWWW     yRLUUUUUUUUUUUUUUUUUUUUUIUPTmX            <YIUUUUUUUIUU=           yRIUUUUUUUUUUUUUUUUUUUUUUUUUUUUULRy     WWWWWWWW",
"WWWWWWWWW    *UIIIUUUUUUUUUUUUUUUUUUUUIUF#            &JUIUUUUUUUULRg           +GUIIUUUUUUUUUUUUUUUUUUUUUUUUUIIIU*    WWWWWWWWW",
"WWWWWWWWW     vYLIUUUUUUUUUUUUUUUUUIUIUU:            oCYLUIUUUUUUIUUU*           eRLUUUUUUUUUUUUUUUUUUUUUUUUUUIITv     WWWWWWWWW",
"WWWWWWWWW     2RIIUUUUUUUUUUUUUUUUUUIIT5             lTIUUUUUUUUUUULRd           +FYUIUUUUUUUUUUUUUUUUUUUUUUUIUIT2     WWWWWWWWW",
"WWWWWWWWWW     BYIIUUUUUUUUUUUUUUUIULRt             yRLUUUUUUUUUUUUUUP&           eRIUUUUUUUUUUUUUUUUUUUUUUUUILYNX    WWWWWWWWWW",
"WWWWWWWWWW     7RIUIUUUUUUUUUUUUUIULRj             6TIIIUUUUUUUUUUUULRa           oDUIIUUUUUUUUUUUUUUUUUUUUUIULT7     WWWWWWWWWW",
"WWWWWWWWWWW    XCYIUUUUUUUUUUUUUUUUTMX            ;UUIUUUUUUUUUUUUUUIUK%           qRLUIUUUUUUUUUUUUUUUUUUUUIIYCX    WWWWWWWWWWW",
"WWWWWWWWWWW     5RLUIUUUUUUUUUULUUUF#            @FYLUIUUUUUUUUUUUUUULRa           oAYIIUUUUUUUUUUUUUUUUUUUUULR7     WWWWWWWWWWW",
"WWWWWWWWWWWW     MYLUUUUUUUUUUUUUUU;            .MTIUIUUUUUUUUUUUUUUUIUJ$           8RLUUUUUUUUUUUUUUUUUUUUUIYM     WWWWWWWWWWWW",
"WWWWWWWWWWWW     >YIIUUUUUUUUUUUUY5             gRLUUUUUUUUUUUUUUUUUUUIRy           XBYIUUUUUUUUUUUUUUUUUUIUIY;     WWWWWWWWWWWW",
"WWWWWWWWWWWWW     gRLUUUUUUUUULLYe .   ..    . eRIIIUUUUUUUUUUUUUUUUUIIUJ+   X     X 6YIUUUUUUUUUUUUUUUUUIUIRd     WWWWWWWWWWWWW",
"WWWWWWWWWWWWW     +GUIUUUUUUUUUUUMBCBBBBBBBBBBBUUIUUUUUUUUUUUUUUUUUUUUUUUDNBBBBBCCBBBBIUIUUUUUUUUUUUUUUUUUIUG+     WWWWWWWWWWWWW",
"WWWWWWWWWWWWWW     4TLUIUUUUUUUUUYYYYYYYYYYYYYYUIUIUUUUUUUUUUUUUUUUUUUIUIUYYYYYYYYYYYYUIUUUUUUUUUUUUUUUUUILT4     WWWWWWWWWWWWWW",
"WWWWWWWWWWWWWW      dRLUUUUUUUUULUUULUPUUULUPUULUIUUUUUUUUUUUUUUUUUUUUUIUIIUIULUIILUIIUUUUUUUUUUUUUUUUUIULRd      WWWWWWWWWWWWWW",
"WWWWWWWWWWWWWWW     XNYLUIUUUUUUUUUUUUUUUUUUUUUUUUUUUUUUUUUUUUUUUUUUUUUUUUUUUUUUUUUUUUUUUUUUUUUUUUUUUUIUIYNX     WWWWWWWWWWWWWWW",
"WWWWWWWWWWWWWWWW     *KUIUIUUUUUUUUUUUUUUUUUUUUUUUUUUUUUUUUUUUUUUUUUUUUUUUUUUUUUUUUUUUUUUUUUUUUUUUUUUIUIUJ*     WWWWWWWWWWWWWWWW",
"WWWWWWWWWWWWWWWW      2YIIUUUUUUUUUUUUUUUUUUUUUUUUUUUUUUUUUUUUUUUUUUUUUUUUUUUUUUUUUUUUUUUUUUUUUUUUUUIUIUT2      WWWWWWWWWWWWWWWW",
"WWWWWWWWWWWWWWWWW      qRIIUIUUUUUUUUUUUUUUUUUUUUUUUUUUUUUUUUUUUUUUUUUUUUUUUUUUUUUUUUUUUUUUUUUUUUUUIUIIRq      WWWWWWWWWWWWWWWWW",
"WWWWWWWWWWWWWWWWWW      yRIIUUUUUUUUUUUUUUUUUUUUUUUUUUUUUUUUIUUUUUUUUUUUUUUUUUUUUUUUUUUUUUUUUUUUUUIUIIRy      WWWWWWWWWWWWWWWWWW",
"WWWWWWWWWWWWWWWWWWW      yRLIUIUUUUUUUUUUUUUUUUUUUUUUUUUUUUUUUUUUUUUUUUUUUUUUUUUUUUUUUUUUUUUUUUUUIUIIRy      WWWWWWWWWWWWWWWWWWW",
"WWWWWWWWWWWWWWWWWWWW      yRIIUIUUUUUUUUUUUUUUUUUUUUUUUUUUUUUUUUUUUUUUUUUUUUUUUUUUUUUUUUUUUUUUUUIUIIRy      WWWWWWWWWWWWWWWWWWWW",
"WWWWWWWWWWWWWWWWWWWWW      yRIIUIUUUUUUUUUUUUUUUUUUUUUUUUUUUUUUUUUUUUUUUUUUUUUUUUUUUUUUUUUUUUUUIUIIRy      WWWWWWWWWWWWWWWWWWWWW",
"WWWWWWWWWWWWWWWWWWWWW       qTULIIUUUUUUUUUUUUUUUUUUUUUUUUUUUUUUUUUUUUUUUUUUUUUUUUUUUUUUUUUUUUIUIUTq       WWWWWWWWWWWWWWWWWWWWW",
"WWWWWWWWWWWWWWWWWWWWWW       2KYIIUIUUUUUUUUUUUUUUUUUUUUUUUUUUUUUUUUUUUUUUUUUUUUUUUUUUUUUUUUIUILTK1       WWWWWWWWWWWWWWWWWWWWWW",
"WWWWWWWWWWWWWWWWWWWWWWW       &NRLIIIUUUUUUUUUUUUUUUUUUUUUUUUUUUUUUUUUUUUUUUUUUUUUUUUUUUUUUIUIIRN&       WWWWWWWWWWWWWWWWWWWWWWW",
"WWWWWWWWWWWWWWWWWWWWWWWWW      XsTYLIUIUUUUUUUUUUUUUUUUUUUUUUUUUUUUUUUUUUUUUUUUUUUUUUUUUUIUIIURso      WWWWWWWWWWWWWWWWWWWWWWWWW",
"WWWWWWWWWWWWWWWWWWWWWWWWWW       3FTILUUIUUUUUUUUUUUUUUUUUUUUUUUUUUUUUUUUUUUUUUUUUUUUUUIIUILTG3       WWWWWWWWWWWWWWWWWWWWWWWWWW",
"WWWWWWWWWWWWWWWWWWWWWWWWWWW     . +gYTIIUUUUUUUUUUUUUUUUUUUUUUUUUUUUUUUUUUUUUUUUUUUUUUIUILTYg+       WWWWWWWWWWWWWWWWWWWWWWWWWWW",
"WWWWWWWWWWWWWWWWWWWWWWWWWWWW        ;mRULIUIIUUUUUUUUUUUUUUUUUUUUUUUUUUUUUUUUUUUUUUIIIIIURM;        WWWWWWWWWWWWWWWWWWWWWWWWWWWW",
"WWWWWWWWWWWWWWWWWWWWWWWWWWWWW         5CRYLIIUUUUUUUUUUUUUUUUUUUUUUIUUUUUUUUUUUUUIUIIIYRV6         WWWWWWWWWWWWWWWWWWWWWWWWWWWWW",
"WWWWWWWWWWWWWWWWWWWWWWWWWWWWWWW        X6VTYILUIIIUUUUUUUUUUUUUUUUUUUUUUUUUUUUUIUULUTTB6X        WWWWWWWWWWWWWWWWWWWWWWWWWWWWWWW",
"WWWWWWWWWWWWWWWWWWWWWWWWWWWWWWWW          2vURYLIIIIIIUUUUUUUUUUUUUUUUUUUUIUIIIIUURUv1.         WWWWWWWWWWWWWWWWWWWWWWWWWWWWWWWW",
"WWWWWWWWWWWWWWWWWWWWWWWWWWWWWWWWWW          *tVYRYULIIIUUIUIIUIIIIIIUIIIIUILLIYRYVt*          WWWWWWWWWWWWWWWWWWWWWWWWWWWWWWWWWW",
"WWWWWWWWWWWWWWWWWWWWWWWWWWWWWWWWWWWW           -tmPRRYUIILLLLILIIIIILLIIUUTRTKMt;           WWWWWWWWWWWWWWWWWWWWWWWWWWWWWWWWWWWW",
"WWWWWWWWWWWWWWWWWWWWWWWWWWWWWWWWWWWWWW            $3pbSITTRRTYTTTTYYRRRYLFbi3$            WWWWWWWWWWWWWWWWWWWWWWWWWWWWWWWWWWWWWW",
"WWWWWWWWWWWWWWWWWWWWWWWWWWWWWWWWWWWWWWWW              X&,8tdlcxxxxbldt8<&X              WWWWWWWWWWWWWWWWWWWWWWWWWWWWWWWWWWWWWWWW",
"WWWWWWWWWWWWWWWWWWWWWWWWWWWWWWWWWWWWWWWWWW                                            WWWWWWWWWWWWWWWWWWWWWWWWWWWWWWWWWWWWWWWWWW",
"WWWWWWWWWWWWWWWWWWWWWWWWWWWWWWWWWWWWWWWWWWWWW                                      WWWWWWWWWWWWWWWWWWWWWWWWWWWWWWWWWWWWWWWWWWWWW",
"WWWWWWWWWWWWWWWWWWWWWWWWWWWWWWWWWWWWWWWWWWWWWWWW                                WWWWWWWWWWWWWWWWWWWWWWWWWWWWWWWWWWWWWWWWWWWWWWWW",
"WWWWWWWWWWWWWWWWWWWWWWWWWWWWWWWWWWWWWWWWWWWWWWWWWWWW                        WWWWWWWWWWWWWWWWWWWWWWWWWWWWWWWWWWWWWWWWWWWWWWWWWWWW",
"WWWWWWWWWWWWWWWWWWWWWWWWWWWWWWWWWWWWWWWWWWWWWWWWWWWWWWWWWWW          WWWWWWWWWWWWWWWWWWWWWWWWWWWWWWWWWWWWWWWWWWWWWWWWWWWWWWWWWWW",
"WWWWWWWWWWWWWWWWWWWWWWWWWWWWWWWWWWWWWWWWWWWWWWWWWWWWWWWWWWWWWWWWWWWWWWWWWWWWWWWWWWWWWWWWWWWWWWWWWWWWWWWWWWWWWWWWWWWWWWWWWWWWWWWW",
"WWWWWWWWWWWWWWWWWWWWWWWWWWWWWWWWWWWWWWWWWWWWWWWWWWWWWWWWWWWWWWWWWWWWWWWWWWWWWWWWWWWWWWWWWWWWWWWWWWWWWWWWWWWWWWWWWWWWWWWWWWWWWWWW",
"WWWWWWWWWWWWWWWWWWWWWWWWWWWWWWWWWWWWWWWWWWWWWWWWWWWWWWWWWWWWWWWWWWWWWWWWWWWWWWWWWWWWWWWWWWWWWWWWWWWWWWWWWWWWWWWWWWWWWWWWWWWWWWWW",
"WWWWWWWWWWWWWWWWWWWWWWWWWWWWWWWWWWWWWWWWWWWWWWWWWWWWWWWWWWWWWWWWWWWWWWWWWWWWWWWWWWWWWWWWWWWWWWWWWWWWWWWWWWWWWWWWWWWWWWWWWWWWWWWW",
"WWWWWWWWWWWWWWWWWWWWWWWWWWWWWWWWWWWWWWWWWWWWWWWWWWWWWWWWWWWWWWWWWWWWWWWWWWWWWWWWWWWWWWWWWWWWWWWWWWWWWWWWWWWWWWWWWWWWWWWWWWWWWWWW"
};
