/* XPM */
static char *_6badb415b4f4d1aba7740ef4f46f531[] = {
/* columns rows colors chars-per-pixel */
"64 64 252 2 ",
"   c black",
".  c #010000",
"X  c #010100",
"o  c #010101",
"O  c #020101",
"+  c #020201",
"@  c #030201",
"#  c #030301",
"$  c #040302",
"%  c #050302",
"&  c #040402",
"*  c #050402",
"=  c #060503",
"-  c #070603",
";  c #070604",
":  c #080604",
">  c #0B0905",
",  c #0C0905",
"<  c #0D0A06",
"1  c #0E0B06",
"2  c #0E0B07",
"3  c #120F09",
"4  c #15120B",
"5  c #18130B",
"6  c #18140C",
"7  c #1A150C",
"8  c #1C160D",
"9  c #1D170E",
"0  c #221D11",
"q  c #231E12",
"w  c #241E12",
"e  c #251E12",
"r  c #252013",
"t  c #252113",
"y  c #272114",
"u  c #282214",
"i  c #2A2315",
"p  c #2B2516",
"a  c #2C2516",
"s  c #2F2818",
"d  c #302918",
"f  c #312A19",
"g  c #322B1A",
"h  c #332C1A",
"j  c #372D1B",
"k  c #362E1B",
"l  c #372F1C",
"z  c #382F1C",
"x  c #3A301C",
"c  c #3A321E",
"v  c #3C321E",
"b  c #3D341F",
"n  c #403721",
"m  c #413821",
"M  c #433821",
"N  c #433822",
"B  c #453A22",
"V  c #443A23",
"C  c #463B23",
"Z  c #493E25",
"A  c #493F26",
"S  c #4A3F26",
"D  c #4D4228",
"F  c #504328",
"G  c #514429",
"H  c #504529",
"J  c #53472B",
"K  c #53482B",
"L  c #56482B",
"P  c #55492C",
"I  c #56492C",
"U  c #5A4B2D",
"Y  c #5B4C2E",
"T  c #5A4E2F",
"R  c #5C4D2E",
"E  c #5C4E2F",
"W  c #615332",
"Q  c #635533",
"!  c #645533",
"~  c #655633",
"^  c #665633",
"/  c #665634",
"(  c #685835",
")  c #695936",
"_  c #6F5C37",
"`  c #6F5E38",
"'  c #6F5E39",
"]  c #705F39",
"[  c #716039",
"{  c #71603A",
"}  c #72603A",
"|  c #72613A",
" . c #7E6B40",
".. c #806D41",
"X. c #836E42",
"o. c #826F42",
"O. c #836F43",
"+. c #857043",
"@. c #867043",
"#. c #857144",
"$. c #877144",
"%. c #867345",
"&. c #887345",
"*. c #8B7546",
"=. c #8B7647",
"-. c #8C7848",
";. c #967F4C",
":. c #99834F",
">. c #9B844F",
",. c #9D8751",
"<. c #A08952",
"1. c #A38B53",
"2. c #A78B53",
"3. c #A58C54",
"4. c #A48D55",
"5. c #A58D55",
"6. c #A68E56",
"7. c #A88F56",
"8. c #AA8F56",
"9. c #AA9157",
"0. c #AB9258",
"q. c #AC9358",
"w. c #AE9258",
"e. c #AD955A",
"r. c #AE955A",
"t. c #AF955A",
"y. c #B0965A",
"u. c #B1985B",
"i. c #B59A5D",
"p. c #B59B5D",
"a. c #B69B5D",
"s. c #B99E5F",
"d. c #BAA060",
"f. c #BDA262",
"g. c #BDA362",
"h. c #C2A261",
"j. c #C3A362",
"k. c #C0A463",
"l. c #C2A563",
"z. c #C4A463",
"x. c #C4A563",
"c. c #C3A764",
"v. c #C4A865",
"b. c #C5A966",
"n. c #C6AA66",
"m. c #C7AB67",
"M. c #CCAA66",
"N. c #C9AD68",
"B. c #CAAD68",
"V. c #CEAD68",
"C. c #CFAD68",
"Z. c #CDAE69",
"A. c #CFB16B",
"S. c #CFB26B",
"D. c #D5B26B",
"F. c #D0B36C",
"G. c #D7B36C",
"H. c #D2B56D",
"J. c #D6B46C",
"K. c #DFC073",
"L. c #E0C174",
"P. c #E2C275",
"I. c #E2C375",
"U. c #E5C375",
"Y. c #E7C677",
"T. c #E9C878",
"R. c #E9C879",
"E. c #EBC878",
"W. c #EFCC7B",
"Q. c #EFCD7C",
"!. c #F0CE7C",
"~. c #F9CE7C",
"^. c #FACF7D",
"/. c #FBCF7D",
"(. c #F5D07D",
"). c #F6D37F",
"_. c #F6D47F",
"`. c #FAD07D",
"'. c #FBD07D",
"]. c #FBD07E",
"[. c #FAD17E",
"{. c #FBD17E",
"}. c #F9D27E",
"|. c #F8D37F",
" X c #FAD27E",
".X c #FBD37F",
"XX c #FCD07D",
"oX c #FCD07E",
"OX c #FCD17E",
"+X c #FDD17E",
"@X c #FCD27E",
"#X c #FDD27E",
"$X c #FCD27F",
"%X c #FDD27F",
"&X c #FCD37F",
"*X c #FDD37F",
"=X c #FED27F",
"-X c #FED37F",
";X c #FFD37F",
":X c #F7D781",
">X c #FED380",
",X c #F8D580",
"<X c #FBD581",
"1X c #FDD480",
"2X c #FED480",
"3X c #FFD480",
"4X c #FED580",
"5X c #FFD580",
"6X c #FED581",
"7X c #FFD581",
"8X c #FDD681",
"9X c #FED681",
"0X c #FFD681",
"qX c #FFD781",
"wX c #FDD782",
"eX c #FED782",
"rX c #FFD782",
"tX c #FBD882",
"yX c #FED882",
"uX c #FFD882",
"iX c #FFD883",
"pX c #FED983",
"aX c #FFD983",
"sX c #FFDA83",
"dX c #FFDA84",
"fX c #FEDB84",
"gX c #FFDB84",
"hX c #FCDC84",
"jX c #FFDC84",
"kX c #FEDC85",
"lX c #FFDC85",
"zX c #FEDD85",
"xX c #FFDD85",
"cX c #FFDD86",
"vX c #FEDE86",
"bX c #FFDE86",
"nX c #FFDF86",
"mX c #FFDF87",
"MX c #FEE087",
"NX c #FFE087",
"BX c #FFE187",
"VX c #FFE188",
"CX c #FEE288",
"ZX c #FFE288",
"AX c #FFE289",
"SX c #FEE389",
"DX c #FFE389",
"FX c #FFE489",
"GX c #FFE48A",
"HX c #FFE98D",
"JX c #FFEA8D",
"KX c None",
/* pixels */
"KXKXKXKXKXKXKXKXKXKXKXKXKXKXKXKXKXKXKXKXKXKXKXKXKXKXKXKXKXKXKXKXKXKXKXKXKXKXKXKXKXKXKXKXKXKXKXKXKXKXKXKXKXKXKXKXKXKXKXKXKXKXKXKX",
"KXKXKXKXKXKXKXKXKXKXKXKXKXKXKXKXKXKXKXKXKXKXKXKXKXKXKXKXKXKXKXKXKXKXKXKXKXKXKXKXKXKXKXKXKXKXKXKXKXKXKXKXKXKXKXKXKXKXKXKXKXKXKXKX",
"KXKXKXKXKXKXKXKXKXKXKXKXKXKXKXKXKXKXKXKXKXKXKXKXKXKXKXKXKXKXKXKXKXKXKXKXKXKXKXKXKXKXKXKXKXKXKXKXKXKXKXKXKXKXKXKXKXKXKXKXKXKXKXKX",
"KXKXKXKXKXKXKXKXKXKXKXKXKXKXKXKXKXKXKXKXKXKXKXKXKX$ * * $             $ * *   KXKXKXKXKXKXKXKXKXKXKXKXKXKXKXKXKXKXKXKXKXKXKXKXKX",
"KXKXKXKXKXKXKXKXKXKXKXKXKXKXKXKXKXKXKXKXKXKX  $                                 $   KXKXKXKXKXKXKXKXKXKXKXKXKXKXKXKXKXKXKXKXKXKX",
"KXKXKXKXKXKXKXKXKXKXKXKXKXKXKXKXKXKXKX  *         w P +.8.x.J.J.G.D.x.8.%.L w         *   KXKXKXKXKXKXKXKXKXKXKXKXKXKXKXKXKXKXKX",
"KXKXKXKXKXKXKXKXKXKXKXKXKXKXKXKXKX  *       s %.C..XMXZXMXxXyXyXfXfXxXMXFXxX.XV.%.s       *   KXKXKXKXKXKXKXKXKXKXKXKXKXKXKXKXKX",
"KXKXKXKXKXKXKXKXKXKXKXKXKXKXKXKX        F j.5XZXxX5X.X/..X%X%X%X%X%X/..X.X.X%XxXFX5Xj.H #       KXKXKXKXKXKXKXKXKXKXKXKXKXKXKXKX",
"KXKXKXKXKXKXKXKXKXKXKXKXKXKX        N M.MXxX%X.X%X%X%X3X3X3X3X3X;X5X5X3X3X%X%X%X.X%XxXMXM.V     *   KXKXKXKXKXKXKXKXKXKXKXKXKXKX",
"KXKXKXKXKXKXKXKXKXKXKXKXKX  $   4 2.MXxX%X.X%X3X%X3X3X3X3X3X3X3X;X5X3X3X3X3X5X%X%X%X.X%XzXxX2.4       KXKXKXKXKXKXKXKXKXKXKXKXKX",
"KXKXKXKXKXKXKXKXKXKXKXKX      N Y.MX.X%X%X5X%X3X;X5X3X3X3X3X3X3X3X3X3X3X3X3X3X3X5X;X%X;X%X.XMXY.V   #   KXKXKXKXKXKXKXKXKXKXKXKX",
"KXKXKXKXKXKXKXKXKXKXKX  *   _ xX5X/.%X3X%X5X5X3X3X5X3X3X3X3X3X3X3X3X3X3X3X3X3X3X5X5X;X%X;X%X`.yXxX_   $   KXKXKXKXKXKXKXKXKXKXKX",
"KXKXKXKXKXKXKXKXKXKX      X.FX.X%X%X%X3X5X5X;X;X3X3X3X3X3X3X3X3X3X3X3X3X3X3X3X3X5X3X5X5X5X%X;X%X.XZXX.  *   KXKXKXKXKXKXKXKXKXKX",
"KXKXKXKXKXKXKXKXKX  *   +.FX.X%X5X%X5X5X5X5X5X;X3X3X3X3X3X5X3X3X3X3X3X3X3X3X3X3X3X3X;X;X3X5X;X;X%X.XFXX.      KXKXKXKXKXKXKXKXKX",
"KXKXKXKXKXKXKXKX  *   [ ZX.X%X%X%X5X3X3X3X3X%X;X;X%X%X%X%X%X3X3X3X3X3X3X3X3X3X3X3X%X%X%X%X%X%X%X5X%X.XZX_   *   KXKXKXKXKXKXKXKX",
"KXKXKXKXKXKXKXKX    N fX%X%X5X;X3X3X3X5X%X3X%X~..X/./..X.X3X%X3X3X3X3X3X3X3X%X3X.X/..X~.%X/.%X%X3X5X%X.XxXC     KXKXKXKXKXKXKXKX",
"KXKXKXKXKXKXKX    5 I.yX%X5X%X5X3X3X3X3X3X%XfXFXZXFXZXFXxX3X3X3X3X3X3X3X5X%X%X%XxXFXZXFXZXZXFX5X%X3X3X%XyXI.5     KXKXKXKXKXKXKX",
"KXKXKXKXKXKX  #   4.ZX/.5X%X3X3X3X3X5X%X%XfXw.! [ ] [ / 4.fX/.3X3X3X3X3X%X5X/.ZXi./ | ' ' | W Z.fX%X%X3X%XMX4.      KXKXKXKXKXKX",
"KXKXKXKXKXKX    Z xX.X%X%X3X3X3X3X3X3X3X%XxXj.          6 E.5X3X%X3X3X3X5X/.xXF.<       +   Z .X5X%X3X%X%X%XxXZ   * KXKXKXKXKXKX",
"KXKXKXKXKX      m.fX.X5X5X3X3X3X3X3X3X3X%X%XZXT   ; * :   -.ZX.X3X3X3X5X3X5XQ.i   ; # ;   x :X5X%X3X3X5X%X.XxXm.      KXKXKXKXKX",
"KXKXKXKXKX*   P MX%X;X%X3X3X3X3X3X3X3X3X3X.XfXN.          t (.5X%X3X3X.X3XxXH       $   6 I.yX%X3X%X3X3X%X5X%XxXP   * KXKXKXKXKX",
"KXKXKXKXKX    g.xX%X5X5X3X3X3X3X3X3X3X3X%X5X%XxXI   #       ,.ZX/.5X3X/.ZX .  $       : m.MX/.5X%X5X3X3X3X3X%XxXg.    KXKXKXKXKX",
"KXKXKXKX    h yX%X;X%X3X3X3X3X3X3X3X3X3X3X5X%XxXm.          h 5X%X5X/.ZXe.            1.ZX/.3X%X5X3X3X3X3X%X%X%X5Xh     KXKXKXKX",
"KXKXKXKX*   %.ZX/.3X5X3X3X3X3X3X3X3X3X3X3X%X%X.XxXJ   $   *   u.MX/.xXF.2       ;    .ZX/.5X%X3X3X3X3X3X3X3X5X.XZX%.  # KXKXKXKX",
"KXKXKXKX    Z.xX.X;X;X5X3X3X3X3X3X3X3X3X3X3X3X.XfXm.          N yX5X!.s       *   U xX<X%X3X3X3X3X3X3X3X5X5X%X%XxXZ.    KXKXKXKX",
"KXKXKX$   t .X;X%X;X5X5X3X3X3X3X3X3X3X3X3X3X%X5X%XxXH   *       g.JXH   $   $   x (.5X3X5X%X3X3X3X3X3X3X5X5X;X%X;X.Xt     KXKXKX",
"KXKXKX$   I xX.X%X3X3X3X3X3X3X3X3X3X3X3X3X3X3X5X.XxXc.          E =.          9 I.fX%X5X%X3X3X3X3X3X3X3X3X3X3X%X.XMXP   * KXKXKX",
"KXKXKX$   +.FX~.%X3X3X3X3X3X3X3X3X3X3X3X3X3X3X%X%X%XxXD         # $         * m.xX%X%X%X5X3X3X3X3X3X3X3X3X3X3X%X.XMX+.  * KXKXKX",
"KXKXKX$   8.MX.X5X3X3X3X3X3X3X3X3X3X3X3X3X3X3X3X%X%XxXk.                $   4.ZX/.3X%X3X3X3X3X3X3X3X3X3X3X3X3X3X.XZX8.  $ KXKXKX",
"KXKXKX    x.xX%X3X3X3X3X3X3X3X3X3X3X3X3X3X3X3X3X%X%X%XxXZ   $         *   X.ZX.X3X%X5X3X3X3X3X3X3X3X3X3X3X3X3X3X%XxXx.    KXKXKX",
"KXKXKX    D.fX%X3X3X3X3X3X3X3X3X3X3X3X3X3X3X3X3X;X;X%XxXc.              R MX%X%X5X3X3X3X3X3X3X3X3X3X3X3X3X3X5X5X%XyXD.    KXKXKX",
"KXKXKX    G.fX%X3X3X3X3X3X3X3X3X3X3X3X3X3X3X3X3X;X5X%XyXY.3       *   b |.;X%X%X%X3X3X3X3X3X3X3X3X3X3X3X3X3X5X5X%XyXG.    KXKXKX",
"KXKXKX    D.yX%X3X3X3X3X3X3X3X3X3X3X3X3X3X3X5X%X%X%X5XyXN             H ZX.X%X%X3X3X3X3X3X3X3X3X3X3X3X3X3X3X3X3X.XyXG.    KXKXKX",
"KXKXKX    D.xX.X3X3X3X3X3X3X3X3X3X3X3X3X3X3X3X5X%X.XZX/   *             d.xX%X5X3X3X3X3X3X3X3X3X3X3X3X3X3X3X3X3X%XfXD.    KXKXKX",
"KXKXKX    x.xX%X3X3X3X3X3X3X3X3X3X3X3X3X3X3X%X5X/.ZX-.  *           *   N zX%X%X%X5X3X3X3X3X3X3X3X3X3X3X3X3X3X5X%XxXx.    KXKXKX",
"KXKXKX$   8.MX/.3X3X3X3X3X3X3X3X3X3X3X3X5X%X5X/.ZXe.                      i.xX%X3X3X3X3X3X3X3X3X3X3X3X3X3X3X3X5X.XMX8.  $ KXKXKX",
"KXKXKX$   %.ZX.X%X3X3X3X3X3X3X3X3X3X3X3X;X;X.XxXS.1           i <     #   b yX;X%X%X%X3X3X3X3X3X3X3X3X3X3X3X5X;X.XZX%.  $ KXKXKX",
"KXKXKX$   I xX.X%X5X3X3X3X3X3X3X3X3X5X%X;X%XyXE.w   *       w W.D       #   e.MX.X5X5X5X3X3X3X3X3X3X3X3X3X3X;X%X.XMXI   $ KXKXKX",
"KXKXKX$   t .X%X%X5X3X3X3X3X3X3X3X3X%X5X%X;XtXV   *       < B.HXi.      #   x yX%X%X%X3X3X3X3X3X3X3X3X3X3X3X3X%X%X.Xt     KXKXKX",
"KXKXKXKX    Z.zX%X%X3X3X3X3X3X3X3X3X5X%X%XMX!   *         9.MX~.fXn   #       7.ZX/.5X3X3X3X3X3X3X3X3X3X3X3X%X%XyXZ.    KXKXKXKX",
"KXKXKXKX    %.ZX/.5X3X3X3X3X3X3X3X%X5X/.FX=.        $   X.ZX.X.XxXi.          d 5X5X3X3X3X3X3X3X3X3X3X3X;X;X%X.XZX%.  * KXKXKXKX",
"KXKXKXKX*   h yX%X3X%X5X3X3X3X5X%X5X/.ZXe.  $     $   R MX%X;X%X3XyXx   $   $   <.ZX/.3X3X3X3X3X3X3X3X3X;X%X%X%XyXh     KXKXKXKX",
"KXKXKXKXKX    g.xX.X5X5X3X3X3X%X5X/.xXA.1       $   z (.5X%X5X5X.XZXe.          p (.3X3X%X5X3X3X3X3X5X3X5X5X.XxXg.    KXKXKXKXKX",
"KXKXKXKXKX    K xX.X5X%X3X3X%X5X%XyXE.w   *       6 K.fX%X;X%X%X%X5X5Xk   $       :.ZX/.3X3X3X3X3X3X5X5X;X5X%XMXK   $ KXKXKXKXKX",
"KXKXKXKXKX      m.xX%X;X3X3X3X3X5XxXC   : # *   $ k.MX/.3X%X3X3X3X/.MX4.  : ; *   i ,X3X3X3X3X3X3X3X3X3X;X%XxXm.      KXKXKXKXKX",
"KXKXKXKXKXKX$   Z xX%X%X%X%X<X5X5XI             >.ZX/.5X%X3X3X3X%X%X%X<Xd           O.ZX/..X3X3X3X3X5X%X%X%XxXZ     KXKXKXKXKXKX",
"KXKXKXKXKXKX      4.ZX/.3X%X<X5XJ.Q [ ' ] ] ) :.xX%X3X%X5X3X3X3X5X5X%XxXs.! [ ' [ ) =.5X3X%X3X3X5X5X%X5X%XMX4.  $   KXKXKXKXKXKX",
"KXKXKXKXKXKXKX    5 I.yX%X3X5X5X5XFXZXFXFXMXFXxX%X%X3X3X3X3X3X3X5X%X3X%XfXFXZXZXZXFXxX5X3X3X3X3X3X%X%X%XyXI.7     KXKXKXKXKXKXKX",
"KXKXKXKXKXKXKXKX*   N xX;X%X%X5X;X.X/.%X~.%X.X.X%X;X;X5X3X3X3X3X3X3X%X3X%X.X/..X~..X%X3X%X3X5X5X%X5X%X%XxXN     KXKXKXKXKXKXKXKX",
"KXKXKXKXKXKXKXKX  *   ] FX.X%X3X;X;X%X%X%X%X;X;X%X%X5X5X3X3X3X3X3X3X5X5X%X%X%X%X%X%X%X3X3X5X5X;X5X%X.XZX]   *   KXKXKXKXKXKXKXKX",
"KXKXKXKXKXKXKXKXKX      O.FX.X%X%X%X3X5X;X;X5X5X3X3X3X3X3X3X3X3X3X3X5X5X%X;X3X3X;X;X3X3X3X3X%X;X%X.XZXO.      KXKXKXKXKXKXKXKXKX",
"KXKXKXKXKXKXKXKXKXKX  *   X.ZX%X%X5X%X5X;X;X5X5X3X3X3X3X3X3X3X3X3X3X5X5X;X;X3X3X5X5X3X3X5X%X;X%X.XFXX.  $   KXKXKXKXKXKXKXKXKXKX",
"KXKXKXKXKXKXKXKXKXKXKX      _ xXyX%X%X%X%X3X3X3X3X3X3X3X3X3X3X3X3X3X3X3X3X3X3X3X5X5X3X%X%X%X/.yXfX'   *   KXKXKXKXKXKXKXKXKXKXKX",
"KXKXKXKXKXKXKXKXKXKXKXKX  *   V U.ZX.X/.5X3X%X3X3X3X3X3X3X3X3X3X3X3X3X3X3X3X3X3X3X%X3X5X.X.XMXY.N       KXKXKXKXKXKXKXKXKXKXKXKX",
"KXKXKXKXKXKXKXKXKXKXKXKXKX      4 4.xXxX/.%X%X3X%X;X5X3X3X3X3X3X3X3X3X3X5X3X5X%X3X3X.X/.xXxX2.6   $   KXKXKXKXKXKXKXKXKXKXKXKXKX",
"KXKXKXKXKXKXKXKXKXKXKXKXKXKX        V M.MXxX.X.X%X%X;X5X3X3X3X3X3X3X3X3X3X%X%X.X/.5XxXxXV.N   #     KXKXKXKXKXKXKXKXKXKXKXKXKXKX",
"KXKXKXKXKXKXKXKXKXKXKXKXKXKXKXKX        H j.5XFXxX5X/..X.X%X%X%X.X%X%X.X/..X%XxXZX5Xj.F         KXKXKXKXKXKXKXKXKXKXKXKXKXKXKXKX",
"KXKXKXKXKXKXKXKXKXKXKXKXKXKXKXKXKX  *       d $.Z..XxXZXMXMXyXxXfXyXxXMXZXMX.XZ.%.s       $   KXKXKXKXKXKXKXKXKXKXKXKXKXKXKXKXKX",
"KXKXKXKXKXKXKXKXKXKXKXKXKXKXKXKXKXKXKX  *         0 P @.8.j.D.G.G.D.x.8.@.P 0         *   KXKXKXKXKXKXKXKXKXKXKXKXKXKXKXKXKXKXKX",
"KXKXKXKXKXKXKXKXKXKXKXKXKXKXKXKXKXKXKXKXKXKX$ $                                 * * KXKXKXKXKXKXKXKXKXKXKXKXKXKXKXKXKXKXKXKXKXKX",
"KXKXKXKXKXKXKXKXKXKXKXKXKXKXKXKXKXKXKXKXKXKXKXKXKX$ $ $ *               $ $ $ KXKXKXKXKXKXKXKXKXKXKXKXKXKXKXKXKXKXKXKXKXKXKXKXKX",
"KXKXKXKXKXKXKXKXKXKXKXKXKXKXKXKXKXKXKXKXKXKXKXKXKXKXKXKXKXKXKXKXKXKXKXKXKXKXKXKXKXKXKXKXKXKXKXKXKXKXKXKXKXKXKXKXKXKXKXKXKXKXKXKX",
"KXKXKXKXKXKXKXKXKXKXKXKXKXKXKXKXKXKXKXKXKXKXKXKXKXKXKXKXKXKXKXKXKXKXKXKXKXKXKXKXKXKXKXKXKXKXKXKXKXKXKXKXKXKXKXKXKXKXKXKXKXKXKXKX",
"KXKXKXKXKXKXKXKXKXKXKXKXKXKXKXKXKXKXKXKXKXKXKXKXKXKXKXKXKXKXKXKXKXKXKXKXKXKXKXKXKXKXKXKXKXKXKXKXKXKXKXKXKXKXKXKXKXKXKXKXKXKXKXKX"
};
